<svg width="15" height="13" viewBox="0 0 15 13" fill="none" xmlns="http://www.w3.org/2000/svg">
<path d="M5.44296 12.75C5.25793 12.75 5.08049 12.6842 4.94966 12.5669C4.81883 12.4497 4.74533 12.2908 4.74533 12.125V10.25H1.95482C1.58478 10.25 1.22989 10.1183 0.96823 9.88388C0.70657 9.64946 0.55957 9.33152 0.55957 9V1.5C0.55957 1.16848 0.70657 0.850537 0.96823 0.616116C1.22989 0.381696 1.58478 0.25 1.95482 0.25H13.1168C13.4869 0.25 13.8418 0.381696 14.1034 0.616116C14.3651 0.850537 14.5121 1.16848 14.5121 1.5V9C14.5121 9.33152 14.3651 9.64946 14.1034 9.88388C13.8418 10.1183 13.4869 10.25 13.1168 10.25H8.86133L6.28011 12.5688C6.14058 12.6875 5.96618 12.75 5.79177 12.75H5.44296ZM6.14058 9V10.925L8.28927 9H13.1168V1.5H1.95482V9H6.14058Z" fill="#767373"/>
</svg>
