<svg width="10" height="14" viewBox="0 0 10 14" fill="none" xmlns="http://www.w3.org/2000/svg">
<path d="M9.375 3.725V1.5C9.375 1.26794 9.28281 1.04538 9.11872 0.881282C8.95462 0.717187 8.73206 0.625 8.5 0.625H1.5C1.26794 0.625 1.04538 0.717187 0.881282 0.881282C0.717187 1.04538 0.625 1.26794 0.625 1.5V3.75C0.625 3.88584 0.656627 4.01981 0.717376 4.14131C0.778125 4.26281 0.866328 4.3685 0.975 4.45L4.375 7L0.975 9.55C0.866328 9.6315 0.778125 9.73719 0.717376 9.85869C0.656627 9.98019 0.625 10.1142 0.625 10.25V12.5C0.625 12.7321 0.717187 12.9546 0.881282 13.1187C1.04538 13.2828 1.26794 13.375 1.5 13.375H8.5C8.73206 13.375 8.95462 13.2828 9.11872 13.1187C9.28281 12.9546 9.375 12.7321 9.375 12.5V10.275C9.375 10.1392 9.34337 10.0052 9.28262 9.88369C9.22188 9.76219 9.13367 9.6565 9.025 9.575L5.625 7L9.025 4.425C9.13367 4.3435 9.22188 4.23781 9.28262 4.11631C9.34337 3.99481 9.375 3.86084 9.375 3.725ZM8.625 10.275V12.5C8.625 12.5332 8.61183 12.5649 8.58839 12.5884C8.56495 12.6118 8.53315 12.625 8.5 12.625H1.5C1.46685 12.625 1.43505 12.6118 1.41161 12.5884C1.38817 12.5649 1.375 12.5332 1.375 12.5V10.25C1.37546 10.2307 1.38018 10.2117 1.38882 10.1944C1.39746 10.1771 1.40982 10.162 1.425 10.15L5 7.46875L8.575 10.175C8.59133 10.1859 8.60453 10.2008 8.6133 10.2183C8.62207 10.2359 8.62611 10.2554 8.625 10.275ZM8.625 3.725C8.62611 3.74458 8.62207 3.76411 8.6133 3.78165C8.60453 3.79919 8.59133 3.81414 8.575 3.825L5 6.53125L1.425 3.85C1.40982 3.83804 1.39746 3.82288 1.38882 3.80559C1.38018 3.7883 1.37546 3.76932 1.375 3.75V1.5C1.375 1.46685 1.38817 1.43505 1.41161 1.41161C1.43505 1.38817 1.46685 1.375 1.5 1.375H8.5C8.53315 1.375 8.56495 1.38817 8.58839 1.41161C8.61183 1.43505 8.625 1.46685 8.625 1.5V3.725Z" fill="#767373"/>
</svg>
