<svg width="16" height="15" viewBox="0 0 16 15" fill="none" xmlns="http://www.w3.org/2000/svg">
<path d="M12.8609 10C12.5476 10.0011 12.2378 10.0588 11.9501 10.1698C11.6624 10.2808 11.4027 10.4427 11.1866 10.6458L5.51719 8.10417C5.65665 7.72532 5.65665 7.31636 5.51719 6.9375L11.1959 4.35C11.6026 4.73401 12.1542 4.96882 12.7434 5.00878C13.3327 5.04873 13.9174 4.89099 14.384 4.56621C14.8507 4.24142 15.1659 3.7728 15.2683 3.25143C15.3708 2.73005 15.2532 2.19317 14.9384 1.74514C14.6237 1.29711 14.1342 0.969928 13.5652 0.827196C12.9962 0.684463 12.3882 0.736375 11.8595 0.972841C11.3308 1.20931 10.9192 1.61343 10.7046 2.10667C10.4899 2.59991 10.4877 3.14702 10.6982 3.64167L5.07536 6.20417C4.77168 5.87144 4.36057 5.631 3.89837 5.5158C3.43618 5.40061 2.94553 5.41631 2.49369 5.56074C2.04184 5.70517 1.65092 5.97127 1.3745 6.32255C1.09809 6.67384 0.949707 7.09312 0.949707 7.52292C0.949707 7.95272 1.09809 8.372 1.3745 8.72329C1.65092 9.07457 2.04184 9.34067 2.49369 9.4851C2.94553 9.62953 3.43618 9.64523 3.89837 9.53003C4.36057 9.41484 4.77168 9.1744 5.07536 8.84167L10.6843 11.3708C10.5895 11.5988 10.5407 11.8401 10.5401 12.0833C10.5401 12.4954 10.6765 12.8982 10.932 13.2408C11.1875 13.5834 11.5507 13.8504 11.9756 14.0081C12.4005 14.1658 12.8681 14.207 13.3192 14.1266C13.7703 14.0463 14.1846 13.8478 14.5098 13.5565C14.835 13.2651 15.0565 12.8939 15.1463 12.4898C15.236 12.0856 15.1899 11.6668 15.0139 11.2861C14.8379 10.9054 14.5399 10.58 14.1574 10.3511C13.775 10.1222 13.3254 10 12.8655 10H12.8609ZM12.8609 1.66667C13.1368 1.66667 13.4066 1.73998 13.636 1.87733C13.8655 2.01468 14.0443 2.20991 14.1499 2.43831C14.2555 2.66672 14.2831 2.91806 14.2293 3.16053C14.1755 3.40301 14.0426 3.62574 13.8475 3.80055C13.6523 3.97537 13.4037 4.09442 13.1331 4.14265C12.8624 4.19088 12.5819 4.16613 12.3269 4.07152C12.072 3.97691 11.8541 3.81669 11.7008 3.61113C11.5474 3.40557 11.4656 3.1639 11.4656 2.91667C11.4656 2.58515 11.6126 2.26721 11.8743 2.03279C12.1359 1.79837 12.4908 1.66667 12.8609 1.66667ZM3.31269 8.75C3.03673 8.75 2.76697 8.67669 2.53753 8.53934C2.30808 8.40199 2.12925 8.20676 2.02364 7.97836C1.91804 7.74995 1.89041 7.49862 1.94424 7.25614C1.99808 7.01366 2.13097 6.79093 2.32609 6.61612C2.52122 6.4413 2.76983 6.32225 3.04049 6.27402C3.31114 6.22579 3.59168 6.25054 3.84663 6.34515C4.10158 6.43976 4.31948 6.59998 4.4728 6.80554C4.62611 7.0111 4.70794 7.25278 4.70794 7.5C4.70794 7.83152 4.56094 8.14947 4.29928 8.38389C4.03762 8.61831 3.68273 8.75 3.31269 8.75ZM12.8609 13.3333C12.5849 13.3333 12.3151 13.26 12.0857 13.1227C11.8563 12.9853 11.6774 12.7901 11.5718 12.5617C11.4662 12.3333 11.4386 12.0819 11.4924 11.8395C11.5463 11.597 11.6791 11.3743 11.8743 11.1995C12.0694 11.0246 12.318 10.9056 12.5887 10.8574C12.8593 10.8091 13.1399 10.8339 13.3948 10.9285C13.6498 11.0231 13.8677 11.1833 14.021 11.3889C14.1743 11.5944 14.2561 11.8361 14.2561 12.0833C14.2561 12.4149 14.1091 12.7328 13.8475 12.9672C13.5858 13.2016 13.2309 13.3333 12.8609 13.3333Z" fill="#767373"/>
</svg>
